<svg width="17" height="20" viewBox="0 0 17 20" fill="none" xmlns="http://www.w3.org/2000/svg">
<mask id="mask0_0_346" style="mask-type:luminance" maskUnits="userSpaceOnUse" x="0" y="0" width="17" height="21">
<path fill-rule="evenodd" clip-rule="evenodd" d="M0 0.000488281H16.2848V20.0014H0V0.000488281Z" fill="white"/>
</mask>
<g mask="url(#mask0_0_346)">
<path fill-rule="evenodd" clip-rule="evenodd" d="M13.6048 10.629C13.6168 9.07 14.4328 7.633 15.7648 6.82C14.9248 5.613 13.5698 4.871 12.1048 4.82C10.5418 4.66 9.1048 5.73 8.2728 5.73C7.4448 5.73 6.2728 4.84 4.9718 4.859C3.2458 4.918 1.6748 5.879 0.834801 7.391C-0.926199 10.449 0.381801 15 2.1438 17.469C2.9448 18.68 3.9448 20.051 5.2648 20C6.5848 19.949 7.0148 19.18 8.5428 19.18C10.0738 19.18 10.5418 20 11.8428 19.969C13.1438 19.942 14.0658 18.731 14.9058 17.52C15.4998 16.641 15.9638 15.68 16.2848 14.672C14.6638 13.981 13.6088 12.391 13.6048 10.629ZM11.0848 3.191C11.8468 2.309 12.2298 1.16 12.1438 0C10.9838 0.094 9.9058 0.641 9.1438 1.52C8.4058 2.371 8.0458 3.488 8.1438 4.609C9.2928 4.621 10.3778 4.094 11.0848 3.191Z" fill="#1D1D1B"/>
</g>
</svg>
