<svg width="15" height="20" viewBox="0 0 15 20" fill="none" xmlns="http://www.w3.org/2000/svg">
<path fill-rule="evenodd" clip-rule="evenodd" d="M13.0218 8.85653H11.7973V6.24551C11.7973 3.7149 9.71445 1.63245 7.18466 1.63245C4.65445 1.63245 2.5716 3.7149 2.5716 6.24551V8.85653H1.34711V6.24551C1.34711 3.01939 3.96098 0.407959 7.18466 0.407959C10.4083 0.407959 13.0218 3.01939 13.0218 6.24551V8.85653Z" fill="#545454"/>
<path fill-rule="evenodd" clip-rule="evenodd" d="M1.95953 9.51055C1.59341 9.51055 1.30769 9.79585 1.30769 10.1624V18.0003C1.30769 18.3673 1.59341 18.6526 1.95953 18.6526H12.4097C12.7759 18.6526 13.0612 18.3673 13.0612 18.0003V10.1624C13.0612 9.79585 12.7759 9.51055 12.4097 9.51055H1.95953ZM12.4097 19.9583H1.95953C0.899531 19.9583 -6.10352e-05 19.0608 -6.10352e-05 18.0003V10.1624C-6.10352e-05 9.10239 0.899531 8.20483 1.95953 8.20483H12.4097C13.4693 8.20483 14.3689 9.10239 14.3689 10.1624V18.0003C14.3689 19.1024 13.4693 19.9583 12.4097 19.9583Z" fill="#545454"/>
<path fill-rule="evenodd" clip-rule="evenodd" d="M8.49017 12.1221C8.49017 12.8572 7.91997 13.4278 7.18446 13.4278C6.44935 13.4278 5.87915 12.8572 5.87915 12.1221C5.87915 11.387 6.44935 10.8164 7.18446 10.8164C7.91997 10.8164 8.49017 11.4287 8.49017 12.1221Z" fill="#545454"/>
<path fill-rule="evenodd" clip-rule="evenodd" d="M7.51159 12.1221H6.8573L6.20587 16.0413H8.16342L7.51159 12.1221Z" fill="#545454"/>
</svg>
